<?xml version="1.0" encoding="iso-8859-1"?>
<!-- Generator: Adobe Illustrator 19.0.0, SVG Export Plug-In . SVG Version: 6.00 Build 0)  -->
<svg version="1.1" id="Capa_1" xmlns="http://www.w3.org/2000/svg" xmlns:xlink="http://www.w3.org/1999/xlink" x="0px" y="0px"
	 viewBox="0 0 512 512" style="enable-background:new 0 0 512 512;" xml:space="preserve">
<path style="fill:#17ACE8;" d="M446.499,276.099C414.401,237.4,365.5,198.1,308.5,165.099c-17.1-9.899-34.799-18.9-52.5-26.999
	c-94.2-43.2-192.001-59.401-220.8-9.6c-15.3,26.7-4.501,64.799,30.3,107.399c32.098,38.701,80.999,78.001,137.999,111
	c17.1,9.901,34.501,18.9,52.5,27.001c53.401,24.6,107.999,40.199,150.601,40.199c32.399,0,57.9-9,70.199-30.599
	C492.1,356.8,481.3,318.699,446.499,276.099z M451,368.5c-15.601,26.999-98.699,19.499-195-27.601
	c-12.299-5.999-24.901-12.599-37.5-19.799c-54-31.2-100.201-68.4-129.6-104.4c-25.8-31.201-36.301-58.5-27.9-73.2
	c6-10.201,21.899-15.601,44.099-15.601c36.601,0,91.201,14.101,150.901,43.2c12.299,6,24.901,12.599,37.5,19.799
	C347.5,222.1,393.701,259.3,423.1,295.3C448.9,326.499,459.401,353.8,451,368.5z"/>
<path style="fill:#1689FC;" d="M476.8,383.5c-12.299,21.599-37.8,30.599-70.199,30.599C364,414.099,309.401,398.5,256,373.9v-33.001
	c96.301,47.1,179.399,54.6,195,27.601c8.401-14.7-2.1-42.001-27.9-73.2c-29.399-36-75.601-73.2-129.6-104.401
	c-12.599-7.2-25.201-13.799-37.5-19.799v-33c17.701,8.099,35.4,17.1,52.5,26.999c57.001,33.001,105.901,72.301,137.999,111
	C481.3,318.699,492.1,356.8,476.8,383.5z"/>
<path style="fill:#1DE8F1;" d="M476.8,128.5c-28.5-49.801-126.599-33.6-220.8,9.6c-17.701,8.099-35.4,17.1-52.5,26.999
	c-57.001,33.001-105.901,72.301-137.999,111C30.7,318.699,19.9,356.8,35.2,383.5c12.299,21.599,37.8,30.599,70.199,30.599
	c42.601,0,97.2-15.599,150.601-40.199c17.999-8.101,35.4-17.1,52.5-27.001c57.001-32.999,105.901-72.299,137.999-111
	C481.3,193.299,492.1,155.2,476.8,128.5z M423.1,216.7c-29.399,36-75.601,73.2-129.6,104.399c-12.599,7.2-25.201,13.801-37.5,19.799
	c-96.301,47.1-179.399,54.6-195,27.601c-8.401-14.7,2.1-42.001,27.9-73.2c29.399-36,75.601-73.2,129.6-104.401
	c12.599-7.2,25.201-13.799,37.5-19.799c60-29.099,114.3-43.2,150.901-43.2c22.2,0,38.099,5.4,44.099,15.601
	C459.401,158.2,448.9,185.499,423.1,216.7z"/>
<path style="fill:#1BD9DE;" d="M446.499,235.899C414.401,274.6,365.5,313.9,308.5,346.899c-17.1,9.901-34.501,18.9-52.5,27.001
	v-33.001c12.299-5.999,24.901-12.599,37.5-19.799c54-31.2,100.201-68.4,129.6-104.4c25.8-31.201,36.301-58.5,27.9-73.2
	c-6-10.201-21.899-15.601-44.099-15.601C370.3,127.899,316,142,256,171.099V138.1c94.2-43.2,192.299-59.401,220.8-9.6
	C492.1,155.2,481.3,193.299,446.499,235.899z"/>
<path style="fill:#32D736;" d="M256,0c-68.101,0-105,132.4-105,256s36.899,256,105,256s105-132.4,105-256S324.101,0,256,0z M256,482
	c-35.4,0-75-97.301-75-226c0-128.701,39.6-226,75-226s75,97.299,75,226C331,384.699,291.4,482,256,482z"/>
<path style="fill:#10BB67;" d="M361,256c0,123.6-36.899,256-105,256v-30c35.4,0,75-97.301,75-226c0-128.701-39.6-226-75-226V0
	C324.101,0,361,132.4,361,256z"/>
<path style="fill:#FD3C65;" d="M256,211c-24.901,0-45,20.099-45,45c0,24.899,20.099,45,45,45s45-20.101,45-45
	C301,231.099,280.901,211,256,211z"/>
<path style="fill:#FD003A;" d="M256,301v-90c24.901,0,45,20.099,45,45C301,280.899,280.901,301,256,301z"/>
<g>
</g>
<g>
</g>
<g>
</g>
<g>
</g>
<g>
</g>
<g>
</g>
<g>
</g>
<g>
</g>
<g>
</g>
<g>
</g>
<g>
</g>
<g>
</g>
<g>
</g>
<g>
</g>
<g>
</g>
</svg>
